<svg id="Layer_1" data-name="Layer 1" xmlns="http://www.w3.org/2000/svg" xmlns:xlink="http://www.w3.org/1999/xlink" viewBox="0 0 175 59"><defs><mask id="mask" x="0.12" y="17.69" width="78.32" height="21.16" maskUnits="userSpaceOnUse"><g id="mask-2"><polygon id="path-1" points="0.13 17.69 78.44 17.69 78.44 38.85 0.13 38.85 0.13 17.69" fill="#fff"/></g></mask></defs><title>intrepid-a-logo</title><g id="Global-Nav"><g id="Group-5"><g id="Group"><g id="Group-11"><path id="Fill-1" d="M102.83,21.52l-1.25,1.07a6.15,6.15,0,0,0-4.66-2.19c-3.84,0-5.93,3.25-5.93,6.32S93.08,33,96.92,33c2.61,0,5.39-1.89,5.67-4.75H95.84V26.59h8.72c0,4.43-3,8.07-7.64,8.07-5,0-7.68-3.95-7.7-7.94s2.67-8,7.7-8a7.6,7.6,0,0,1,5.91,2.79"/><path id="Fill-3" d="M108.74,23.18l.18,1.43c1.1-1.89,3.6-1.95,5.2-1.14L113.49,25A3,3,0,0,0,109,27.68v6.7H107.3V23.18Z"/><path id="Fill-5" d="M120.4,34.64a5.53,5.53,0,0,1-5.55-5.81,5.56,5.56,0,1,1,11.11,0,5.53,5.53,0,0,1-5.56,5.81m0-1.51c2,0,3.88-1.41,3.88-4.3s-1.9-4.26-3.88-4.26-3.87,1.36-3.87,4.26,1.9,4.3,3.87,4.3"/><path id="Fill-7" d="M138.24,33.81a12.23,12.23,0,0,1-4.34.85c-3.08,0-5.59-1.8-5.59-5.11V23.23H130v6.32c0,2.37,1.74,3.58,3.88,3.58a7.11,7.11,0,0,0,2.65-.4V23.21h1.71Z"/><path id="Fill-9" d="M141.52,38.66V23.6a13.65,13.65,0,0,1,4.23-.63,5.5,5.5,0,0,1,5.71,5.64,5.76,5.76,0,0,1-5.71,5.94,5.42,5.42,0,0,1-2.55-.61v4.72Zm1.68-13.85v7.73a7.19,7.19,0,0,0,2.55.48,4.23,4.23,0,0,0,4-4.39,4,4,0,0,0-4-4.17A8.14,8.14,0,0,0,143.2,24.81Z"/></g><polygon id="Fill-12" points="0 38.85 36.37 38.85 36.37 36.83 0 36.83 0 38.85" fill="#c03"/><polygon id="Fill-13" points="118.2 38.85 137.4 38.85 137.4 36.83 118.2 36.83 118.2 38.85" fill="#004e8b"/><polygon id="Fill-14" points="36.37 38.85 53.55 38.85 53.55 36.83 36.37 36.83 36.37 38.85" fill="#d56620"/><polygon id="Fill-15" points="52.53 38.85 78.8 38.85 78.8 36.83 52.53 36.83 52.53 38.85" fill="#ec6907"/><polygon id="Fill-16" points="87.89 38.85 107.09 38.85 107.09 36.83 87.89 36.83 87.89 38.85" fill="#fdc600"/><polygon id="Fill-17" points="78.8 38.85 86.89 38.85 86.89 36.83 78.8 36.83 78.8 38.85" fill="#e47c25"/><polygon id="Fill-18" points="107.09 38.85 118.2 38.85 118.2 36.83 107.09 36.83 107.09 38.85" fill="#567c9a"/><g id="Group-21"><g mask="url(#mask)"><path id="Fill-19" d="M73.84,32.3a3.74,3.74,0,0,1-3.62-3.95,3.9,3.9,0,0,1,5.71-3.59v7.33A11.84,11.84,0,0,1,73.84,32.3Zm2.09-14.54v4.68c-4.46-1.68-8.19,1.84-8.19,5.91a5.94,5.94,0,0,0,6.1,6.15,13.73,13.73,0,0,0,4.6-.71v-16Zm-13,16.53h2.5v-12h-2.5Zm0-13.65h2.56V17.76H62.88Zm-8.54,3.6a3.76,3.76,0,0,1,3.62,4,3.91,3.91,0,0,1-5.72,3.6V24.47A12.05,12.05,0,0,1,54.34,24.24Zm-2.1,14.61V34.12c4.47,1.68,8.2-1.84,8.2-5.91A6,6,0,0,0,54.34,22a13.26,13.26,0,0,0-4.6.73V38.85ZM38,27.24a3.37,3.37,0,0,1,6.68,0Zm3.41,5a3.42,3.42,0,0,1-3.46-2.84H47a11.25,11.25,0,0,0,.1-1.37,5.66,5.66,0,0,0-5.73-6,5.94,5.94,0,0,0-5.94,6.24c0,3.1,2,6.22,6,6.22a6.07,6.07,0,0,0,5.06-2.69L44.6,30.65A3.57,3.57,0,0,1,41.38,32.21ZM27,22.28v12h2.48V26.78c0-2.33,2.44-3,4.22-1.91l1.06-2.07A5.05,5.05,0,0,0,32.08,22a3,3,0,0,0-2.77,1.53l-.16-1.27ZM24.8,32c-1.4.12-2.16-.52-2.16-1.49v-6H24.8V22.32H22.64V17.76H20.15v4.56H18.77v2.22h1.38V30.6c0,2.88,1.93,4,4.65,3.73ZM6.11,34.29H8.64V24.61a8.38,8.38,0,0,1,2-.35c1.92,0,3.69.76,3.69,3.16v6.87h2.48V27.42c0-3.92-2.67-5.38-5.94-5.38a13.44,13.44,0,0,0-4.76.8Zm-6,0H2.75V17.69H.12Z"/></g></g></g><path id="Line-5" d="M174.33,5.83V54" fill="none" stroke="#d3d3d3" stroke-linecap="square" opacity="0.5" style="isolation:isolate"/></g></g></svg>